<?xml version="1.0" encoding="UTF-8" standalone="no"?>
<!-- Created with Inkscape (http://www.inkscape.org/) -->

<svg
   xmlns:dc="http://purl.org/dc/elements/1.1/"
   xmlns:cc="http://creativecommons.org/ns#"
   xmlns:rdf="http://www.w3.org/1999/02/22-rdf-syntax-ns#"
   xmlns:svg="http://www.w3.org/2000/svg"
   xmlns="http://www.w3.org/2000/svg"
   xmlns:sodipodi="http://sodipodi.sourceforge.net/DTD/sodipodi-0.dtd"
   xmlns:inkscape="http://www.inkscape.org/namespaces/inkscape"
   width="235.30833mm"
   height="50.6525mm"
   viewBox="0 0 235.30834 50.6525"
   version="1.1"
   id="svg8"
   inkscape:version="0.92.5 (2060ec1f9f, 2020-04-08)"
   sodipodi:docname="animalia_logo2.svg">
  <defs
     id="defs2" />
  <sodipodi:namedview
     id="base"
     pagecolor="#ffffff"
     bordercolor="#666666"
     borderopacity="1.0"
     inkscape:pageopacity="0.0"
     inkscape:pageshadow="2"
     inkscape:zoom="0.35"
     inkscape:cx="-155.81892"
     inkscape:cy="78.299616"
     inkscape:document-units="mm"
     inkscape:current-layer="layer1"
     showgrid="false"
     fit-margin-top="0"
     fit-margin-left="0"
     fit-margin-right="0"
     fit-margin-bottom="0"
     inkscape:window-width="1600"
     inkscape:window-height="835"
     inkscape:window-x="0"
     inkscape:window-y="0"
     inkscape:window-maximized="1" />
  <metadata
     id="metadata5">
    <rdf:RDF>
      <cc:Work
         rdf:about="">
        <dc:format>image/svg+xml</dc:format>
        <dc:type
           rdf:resource="http://purl.org/dc/dcmitype/StillImage" />
        <dc:title></dc:title>
      </cc:Work>
    </rdf:RDF>
  </metadata>
  <g
     inkscape:label="Capa 1"
     inkscape:groupmode="layer"
     id="layer1"
     transform="translate(-12.122922,-118.89761)">
    <path
       style="fill:#178fd6;fill-opacity:1;stroke-width:0.27021277"
       d="m 146.54872,169.16836 c -1.27816,-0.45573 -2.16728,-1.26578 -2.75975,-2.51432 -0.40268,-0.84859 -0.4307,-1.72811 -0.25936,-8.14114 0.18533,-6.93637 0.17172,-7.2438 -0.38616,-8.72302 -1.09544,-2.90453 -3.399,-4.57376 -6.57901,-4.76733 -1.64309,-0.10002 -2.02094,-0.0207 -3.59675,0.75507 -1.20246,0.59197 -2.02114,1.22305 -2.58187,1.99022 -1.09179,1.49375 -1.30772,2.08381 -1.69657,4.63615 -0.3713,2.43722 -0.57968,2.92279 -1.71987,4.00767 -1.88535,1.7939 -5.01333,1.43514 -6.69353,-0.76771 -0.57331,-0.75165 -0.76834,-1.39114 -0.93823,-3.07639 -0.46955,-4.65772 -3.17443,-7.33144 -7.40357,-7.31827 -2.32374,0.007 -3.72497,0.58193 -5.24975,2.15311 -1.80855,1.86359 -2.19238,3.32944 -2.21445,8.45694 -0.0302,7.02189 -0.31498,10.32419 -0.96605,11.20304 -0.9623,1.299 -2.20143,1.9597 -3.675387,1.9597 -1.76914,0 -3.06381,-0.65198 -3.94307,-1.98565 l -0.71898,-1.09055 0.0813,-7.58159 c 0.0921,-8.58604 0.30684,-10.14447 1.8378,-13.33944 1.31514,-2.74458 4.536397,-6.01794 7.184147,-7.30036 6.53522,-3.16527 13.44937,-2.31351 18.86086,2.3235 l 0.94288,0.80794 1.44399,-1.31973 c 2.92644,-2.6746 7.44997,-4.19718 11.66706,-3.92703 4.17718,0.2676 7.97825,1.9473 10.83474,4.78788 2.00168,1.99054 3.01296,3.56085 3.94264,6.12209 0.97611,2.68914 1.13135,4.76889 0.92336,12.36996 -0.20809,7.60446 -0.26642,7.90328 -1.82822,9.36471 -0.6698,0.62677 -2.39689,1.32606 -3.19912,1.29532 -0.14862,-0.006 -0.73773,-0.17704 -1.30913,-0.38077 z m 3.61892,-1.02539 c 0.49695,-0.3349 1.15204,-1.03407 1.45576,-1.55373 0.52428,-0.89703 0.55236,-1.37539 0.55503,-9.45653 l 0.003,-8.5117 -0.75343,-1.89149 c -4.25649,-10.68595 -17.45119,-13.99629 -25.81495,-6.47655 -0.73861,0.66407 -1.50233,1.2074 -1.69715,1.2074 -0.19482,0 -0.78493,-0.41797 -1.31136,-0.92882 -3.3215,-3.22325 -8.7554,-4.76528 -13.38692,-3.79895 -5.96804,1.24518 -10.174557,4.69722 -12.163777,9.98208 -1.00056,2.65826 -1.18639,4.42566 -1.25813,11.96621 -0.0645,6.78087 -0.0434,7.11993 0.48719,7.83617 1.04458,1.40999 2.25041,2.02636 3.70006,1.89129 1.487747,-0.1386 2.490917,-0.78002 3.154187,-2.01678 0.3832,-0.71451 0.4918,-2.05415 0.65425,-8.07038 0.16629,-6.15876 0.27136,-7.41836 0.71851,-8.61347 2.00196,-5.35073 8.59504,-6.87977 12.89893,-2.99147 1.45569,1.31514 2.22613,2.98546 2.49888,5.41762 0.12312,1.09778 0.41882,2.373 0.65712,2.83382 1.25245,2.42198 5.21444,2.53065 6.75125,0.18517 0.23589,-0.36002 0.59429,-1.7617 0.79643,-3.11485 0.53931,-3.61024 2.05267,-5.8166 4.86615,-7.09448 1.53508,-0.69723 5.00542,-0.68803 6.55928,0.0174 1.71772,0.7798 3.42347,2.64082 4.12081,4.4959 0.57619,1.5328 0.59635,1.89086 0.50815,9.02696 -0.0834,6.74888 -0.0472,7.51254 0.39414,8.32099 1.04503,1.91407 3.78266,2.56747 5.60678,1.3382 z m 43.35617,1.03654 c -1.00701,-0.44948 -2.1701,-1.66944 -2.54983,-2.67449 -0.19438,-0.51447 -0.28741,-7.79894 -0.28741,-22.50598 0,-21.12906 0.0151,-21.77498 0.53431,-22.79263 0.85737,-1.6806 1.97487,-2.3088 4.10705,-2.3088 1.95031,0 2.75448,0.38823 3.85365,1.86044 0.5523,0.73975 0.55712,0.94176 0.55712,23.35671 v 22.61051 l -0.63073,0.88431 c -1.21761,1.70711 -3.70816,2.40731 -5.58416,1.56993 z m 3.91808,-0.93941 c 0.37154,-0.26602 0.94912,-0.88566 1.28351,-1.37698 l 0.60798,-0.89331 v -21.73888 c 0,-24.03719 0.0806,-22.90429 -1.72214,-24.19024 -0.61262,-0.43698 -1.22942,-0.60266 -2.24368,-0.60266 -1.51135,0 -2.42876,0.49493 -3.44833,1.86034 -0.54991,0.73643 -0.55816,1.01957 -0.63732,21.87053 -0.0441,11.61845 -0.005,21.64637 0.0858,22.28426 0.19975,1.39548 1.42916,2.91448 2.6564,3.28212 1.09855,0.32908 2.56286,0.11693 3.41776,-0.49518 z m -171.990417,0.65319 c -3.6833,-0.80885 -6.4158,-2.35048 -8.87577,-5.00755 -2.74999,-2.97031 -4.15764,-6.29099 -4.41875,-10.42388 -0.51084,-8.0858 4.77574,-15.24944 12.74332,-17.26795 2.08915,-0.52927 5.98002,-0.52147 8.05476,0.0162 5.35191,1.38682 10.10995,5.87347 11.87216,11.19499 0.5287,1.59657 0.59168,2.47104 0.69221,9.61029 0.1263,8.96993 0.0401,9.58475 -1.5448,11.0166 -2.28486,2.06424 -5.71938,1.43663 -7.15069,-1.30667 -0.52329,-1.00297 -0.57366,-1.64553 -0.69903,-8.91703 -0.10341,-5.99733 -0.22354,-7.99469 -0.51197,-8.5117 -0.83064,-1.48893 -1.95097,-2.6338 -3.31869,-3.39141 -1.23883,-0.68621 -1.71978,-0.79594 -3.46509,-0.79058 -3.03409,0.009 -5.15762,1.27816 -6.62235,3.95698 -0.66056,1.20809 -0.78706,1.74666 -0.78271,3.33246 0.0121,4.40863 2.59068,6.98236 7.72228,7.70771 2.53817,0.35877 3.95609,1.66208 4.20434,3.86449 0.18633,1.65318 -0.0426,2.41797 -1.07603,3.59501 -1.51773,1.7286 -3.35284,2.08418 -6.82319,1.32209 z m 5.52267,-0.9164 c 1.71023,-1.23141 2.32177,-3.27072 1.50008,-5.0023 -0.68467,-1.44284 -1.74425,-2.07439 -3.94359,-2.35055 -3.44317,-0.43234 -5.60354,-1.84465 -6.91886,-4.52311 -0.63656,-1.29627 -0.7531,-1.87171 -0.74869,-3.69694 0.004,-1.81489 0.12155,-2.38381 0.7303,-3.5461 3.18465,-6.08053 11.74293,-5.8321 14.63805,0.42492 0.52572,1.1362 0.57925,1.82951 0.70409,9.11902 l 0.1351,7.88933 0.93376,0.96278 c 1.65417,1.70558 3.92829,1.83021 5.54656,0.30398 1.43086,-1.34947 1.56154,-2.31675 1.42624,-10.55648 -0.10906,-6.6414 -0.17479,-7.47013 -0.729,-9.19107 -0.82484,-2.56135 -1.95003,-4.46562 -3.80919,-6.44668 -6.0269,-6.42205 -16.18674,-6.68667 -22.63266,-0.58947 -2.09075,1.97764 -3.31524,3.87342 -4.31178,6.67553 -0.59976,1.68643 -0.70369,2.42502 -0.69713,4.95424 0.006,2.46581 0.12903,3.34355 0.7196,5.15057 1.13281,3.46612 3.36979,6.38934 6.39509,8.3569 3.88454,2.52638 9.0757,3.49564 11.06203,2.06543 z m 19.58588,0.80299 c -1.2821,-0.58231 -2.15593,-1.59259 -2.56849,-2.96958 -0.19178,-0.64011 -0.25685,-3.63185 -0.18875,-8.67778 0.1012,-7.49852 0.12302,-7.75823 0.83033,-9.88376 0.92126,-2.76843 2.33482,-4.94709 4.54456,-7.00434 2.09962,-1.95475 4.26188,-3.14811 7.12952,-3.93483 1.78808,-0.49056 2.6328,-0.56676 5.12455,-0.46231 2.52895,0.10602 3.31294,0.25484 5.14526,0.97672 3.71135,1.46216 7.01172,4.39398 8.71046,7.73775 1.76032,3.46498 1.78612,3.63376 1.90118,12.43586 0.0701,5.36636 0.006,8.43885 -0.1883,9.09 -0.16298,0.54478 -0.76843,1.412 -1.35704,1.94378 -1.77428,1.60295 -4.10298,1.65465 -5.83985,0.12966 -0.52266,-0.4589 -1.09764,-1.09128 -1.27773,-1.40529 -0.22635,-0.39466 -0.36921,-2.99009 -0.46275,-8.40709 -0.12811,-7.41946 -0.16693,-7.89532 -0.73017,-8.94849 -0.9097,-1.70104 -1.79479,-2.62356 -3.30649,-3.44633 -3.68845,-2.0075 -8.0034,-0.68323 -9.94665,3.05266 l -0.87819,1.68831 -0.007,6.93437 c -0.004,3.81391 -0.11707,7.41135 -0.25227,7.99431 -0.33822,1.45828 -1.04741,2.34467 -2.44893,3.06081 -1.43788,0.73472 -2.47125,0.75982 -3.9338,0.0956 z m 4.04387,-0.79788 c 0.42904,-0.24535 1.00662,-0.86978 1.28351,-1.38762 0.45356,-0.84826 0.50343,-1.62841 0.50343,-7.87526 0,-6.14215 0.0609,-7.13108 0.53391,-8.66233 1.70697,-5.52651 8.52168,-7.4787 12.83943,-3.67807 0.68405,0.60213 1.57237,1.71776 1.97403,2.47917 l 0.73029,1.3844 0.13511,7.88474 c 0.12728,7.42795 0.16738,7.92793 0.69223,8.63012 0.98379,1.31621 1.84761,1.7845 3.33304,1.80691 1.49636,0.0226 2.37138,-0.44437 3.38888,-1.80842 0.53388,-0.71571 0.55713,-1.08706 0.55713,-8.90033 0,-7.67179 -0.0354,-8.26519 -0.59931,-10.04494 -1.73303,-5.46963 -6.55883,-9.95631 -11.93444,-11.09576 -8.47809,-1.79707 -16.73567,3.23587 -19.10687,11.64552 -0.58126,2.06149 -0.88893,15.25764 -0.39822,17.08 0.75378,2.79933 3.56115,3.97536 6.06785,2.54187 z m 32.05077,1.00745 c -0.86318,-0.34318 -2.101,-1.51521 -2.59114,-2.45342 -0.31305,-0.59923 -0.3812,-3.10378 -0.3812,-14.01023 0,-14.77375 -0.038,-14.44384 1.82685,-15.86622 1.36262,-1.03932 3.87556,-1.17987 5.17384,-0.28937 0.50649,0.34741 1.17527,0.97485 1.48617,1.39431 0.55357,0.74688 0.56682,1.04535 0.6401,14.42023 l 0.0748,13.65756 -0.67899,1.15861 c -1.0937,1.86627 -3.59976,2.7641 -5.55046,1.98853 z m 3.76628,-1.01813 c 0.36237,-0.25785 0.90955,-0.80448 1.21596,-1.21476 0.54241,-0.72625 0.5591,-1.09549 0.63212,-13.97784 0.0671,-11.83885 0.028,-13.33086 -0.37108,-14.17193 -0.60297,-1.27067 -1.81169,-2.07374 -3.31876,-2.20496 -1.69719,-0.14778 -2.96002,0.55831 -3.74845,2.0959 -0.60523,1.1803 -0.60798,1.24354 -0.60798,13.97219 0,13.77917 0.007,13.84861 1.43369,15.16406 1.25022,1.15238 3.40469,1.30493 4.7645,0.33734 z m 77.341247,0.77181 c -5.36646,-1.40569 -9.75365,-5.42409 -11.57525,-10.60223 -0.89969,-2.55748 -1.14354,-6.81731 -0.53722,-9.38478 1.91624,-8.11444 9.05122,-13.38574 17.44931,-12.8915 4.34167,0.25551 7.51306,1.70565 10.72176,4.9026 2.38565,2.37691 3.99315,5.42447 4.57039,8.66472 0.46266,2.59705 0.55363,14.85186 0.1218,16.40675 -1.26679,4.56125 -7.62645,4.56125 -8.89324,0 -0.1585,-0.57069 -0.28088,-4.04066 -0.28324,-8.03044 -0.004,-6.79954 -0.0245,-7.06933 -0.63808,-8.3869 -0.84932,-1.8239 -2.81739,-3.5276 -4.71087,-4.07805 -3.37194,-0.98024 -6.97396,0.59807 -8.6399,3.78578 -0.59661,1.1416 -0.72299,1.73768 -0.72299,3.41002 0,4.24509 2.52531,6.87303 7.24722,7.54173 2.25502,0.31935 3.4847,1.06571 4.20403,2.55164 0.91846,1.89728 0.66832,3.63196 -0.7411,5.13937 -1.51137,1.61645 -3.92685,1.92627 -7.57262,0.97129 z m 6.40881,-0.73686 c 1.24405,-0.92882 1.71421,-1.8169 1.73628,-3.27968 0.0359,-2.37995 -1.3869,-3.71993 -4.34411,-4.09125 -2.50933,-0.31509 -4.11989,-1.10163 -5.57917,-2.72471 -1.98526,-2.20809 -2.58724,-5.31228 -1.59564,-8.22819 0.65729,-1.93282 3.04127,-4.25213 4.95481,-4.82039 4.16148,-1.23582 8.1427,0.52705 9.9605,4.4105 0.70084,1.49723 0.70771,1.57496 0.80169,9.07216 0.10366,8.26848 0.14789,8.51681 1.71559,9.63311 0.63607,0.45292 1.2441,0.61963 2.25994,0.61963 1.60268,0 2.59034,-0.5324 3.37502,-1.81931 0.48952,-0.80284 0.52659,-1.40841 0.52752,-8.61883 5.4e-4,-4.54593 -0.12088,-8.34789 -0.29354,-9.18723 -0.4221,-2.05193 -2.17319,-5.52713 -3.59675,-7.13808 -0.67205,-0.76052 -2.05011,-1.94864 -3.06236,-2.64028 -10.22957,-6.98956 -24.32119,-0.1065 -25.10904,12.26453 -0.44674,7.01481 3.59267,13.42393 10.13637,16.08288 3.13073,1.27213 6.7538,1.47985 8.11289,0.46514 z m 31.10706,0.98318 c -0.86318,-0.34318 -2.101,-1.51521 -2.59115,-2.45342 -0.31304,-0.59923 -0.38119,-3.10378 -0.38119,-14.01023 0,-14.76806 -0.0371,-14.44448 1.82083,-15.86163 0.6888,-0.52537 1.34162,-0.74197 2.48567,-0.82472 1.86557,-0.13495 2.89614,0.31692 3.98858,1.74884 l 0.75705,0.99232 0.0748,13.63085 0.0748,13.63085 -0.67899,1.15861 c -1.09371,1.86627 -3.59976,2.7641 -5.55046,1.98853 z m 3.76628,-1.01813 c 0.36236,-0.25785 0.90954,-0.80464 1.21596,-1.2151 0.54537,-0.73055 0.55712,-1.0323 0.55712,-14.30458 v -13.55829 l -0.60266,-0.84488 c -1.75249,-2.45685 -5.39456,-2.21483 -6.76064,0.44926 -0.60522,1.1803 -0.60797,1.24354 -0.60797,13.97219 0,13.77917 0.007,13.84861 1.43369,15.16406 1.25022,1.15238 3.40469,1.30493 4.7645,0.33734 z m 18.93159,1.13442 c -1.40798,-0.23543 -4.24214,-1.2604 -5.6067,-2.02767 -3.29732,-1.85402 -6.19809,-5.42675 -7.53474,-9.28013 -0.64919,-1.87155 -0.74548,-2.55561 -0.74021,-5.25884 0.005,-2.62908 0.11689,-3.44349 0.72607,-5.29034 3.17131,-9.61451 14.40914,-14.29475 23.35708,-9.72756 4.45212,2.27244 7.4969,6.07315 8.73108,10.89873 0.45613,1.78348 0.52274,3.01426 0.52274,9.65925 0,7.42827 -0.0153,7.64425 -0.62223,8.792 -1.25896,2.38072 -4.28949,3.08511 -6.62464,1.53978 -1.85116,-1.22504 -1.94036,-1.66551 -1.94036,-9.58121 0,-7.81769 -0.17332,-8.93301 -1.69576,-10.91226 -0.4792,-0.62298 -1.54004,-1.50992 -2.35743,-1.97097 -1.3078,-0.73766 -1.72941,-0.83636 -3.51277,-0.82232 -2.33026,0.0183 -3.68276,0.57737 -5.2932,2.18781 -1.43542,1.43543 -1.99007,2.85181 -1.99397,5.09198 -0.002,1.42074 0.15394,2.22915 0.62849,3.24821 1.24344,2.67023 3.15159,3.93065 6.6937,4.42151 2.12812,0.29491 2.98225,0.77157 3.97429,2.21789 0.52987,0.77251 0.61546,1.184 0.53119,2.55367 -0.21227,3.44998 -2.84116,4.99643 -7.24263,4.26047 z m 4.86,-1.11662 c 1.72528,-1.27715 2.29599,-3.15951 1.52057,-5.01534 -0.57043,-1.36523 -1.78221,-2.07416 -4.02723,-2.35606 -4.77271,-0.59928 -7.61858,-3.66635 -7.62134,-8.21373 -0.003,-4.35629 3.12971,-7.62034 7.59263,-7.91187 1.67369,-0.10933 2.13227,-0.0298 3.5835,0.62147 1.79244,0.8044 3.15037,2.10419 4.14559,3.96812 0.59492,1.1142 0.62508,1.47568 0.75479,9.04532 0.12728,7.42795 0.16739,7.92793 0.69223,8.63012 1.00095,1.33916 1.90031,1.82843 3.36096,1.82843 1.46075,0 2.36019,-0.48936 3.36097,-1.82862 0.52429,-0.70162 0.56206,-1.16658 0.64106,-7.89162 0.0656,-5.58377 -0.007,-7.63243 -0.3331,-9.37073 -1.68171,-8.97065 -10.65664,-14.84609 -19.34345,-12.66319 -4.37498,1.09938 -7.62821,3.31017 -9.8939,6.72357 -4.84019,7.29205 -2.80634,17.53286 4.43097,22.31079 3.88773,2.5666 9.17503,3.57477 11.13575,2.12334 z M 86.789773,133.37953 c -0.94582,-0.41934 -2.06196,-1.82189 -2.30794,-2.90016 -0.95014,-4.16513 4.03988,-6.94106 7.05582,-3.92512 1.75921,1.75921 1.69562,4.19612 -0.15635,5.99112 -0.80998,0.78506 -1.14961,0.92004 -2.49438,0.99129 -0.8562,0.0454 -1.79992,-0.0253 -2.09715,-0.15713 z m 3.56564,-0.82429 c 1.17041,-0.71364 1.73391,-1.65163 1.75135,-2.91526 0.0296,-2.14649 -1.32004,-3.61712 -3.34772,-3.64777 -2.25297,-0.0341 -3.72999,1.35413 -3.72167,3.49783 0.005,1.34784 0.4735,2.22279 1.59364,2.97765 1.12797,0.76014 2.56589,0.79394 3.7244,0.0875 z m 114.247117,0.58213 c -1.17539,-0.7491 -1.66859,-1.39876 -1.99598,-2.62913 -1.10186,-4.14098 3.97783,-6.99023 7.02671,-3.94136 1.7566,1.7566 1.69308,4.17371 -0.1568,5.96668 -0.81548,0.7904 -1.17003,0.93475 -2.50656,1.02053 -1.1937,0.0766 -1.74578,-0.0206 -2.36737,-0.41672 z m 3.83585,-0.58213 c 1.22486,-0.74684 1.74855,-1.68108 1.74855,-3.11934 0,-2.14103 -1.35685,-3.48203 -3.52213,-3.48098 -2.14562,0.001 -3.54953,1.40008 -3.54743,3.53512 0.003,2.73951 3.01204,4.47307 5.32101,3.0652 z"
       id="path826"
       inkscape:connector-curvature="0" />
  </g>
</svg>
