<?xml version="1.0" encoding="UTF-8" standalone="no"?>
<!-- Created with Inkscape (http://www.inkscape.org/) -->

<svg
   xmlns:dc="http://purl.org/dc/elements/1.1/"
   xmlns:cc="http://creativecommons.org/ns#"
   xmlns:rdf="http://www.w3.org/1999/02/22-rdf-syntax-ns#"
   xmlns:svg="http://www.w3.org/2000/svg"
   xmlns="http://www.w3.org/2000/svg"
   xmlns:sodipodi="http://sodipodi.sourceforge.net/DTD/sodipodi-0.dtd"
   xmlns:inkscape="http://www.inkscape.org/namespaces/inkscape"
   width="187.81708"
   height="40.611"
   viewBox="0 0 49.693269 10.744994"
   version="1.1"
   id="svg8"
   inkscape:version="0.92.5 (2060ec1f9f, 2020-04-08)"
   sodipodi:docname="logo.svg">
  <defs
     id="defs2" />
  <sodipodi:namedview
     id="base"
     pagecolor="#ffffff"
     bordercolor="#666666"
     borderopacity="1.0"
     inkscape:pageopacity="0.0"
     inkscape:pageshadow="2"
     inkscape:zoom="0.35"
     inkscape:cx="-121.01445"
     inkscape:cy="-305.33198"
     inkscape:document-units="px"
     inkscape:current-layer="layer1"
     showgrid="false"
     units="px"
     inkscape:pagecheckerboard="true"
     fit-margin-top="0"
     fit-margin-left="0"
     fit-margin-right="0"
     fit-margin-bottom="0"
     inkscape:window-width="1600"
     inkscape:window-height="835"
     inkscape:window-x="0"
     inkscape:window-y="0"
     inkscape:window-maximized="1" />
  <metadata
     id="metadata5">
    <rdf:RDF>
      <cc:Work
         rdf:about="">
        <dc:format>image/svg+xml</dc:format>
        <dc:type
           rdf:resource="http://purl.org/dc/dcmitype/StillImage" />
        <dc:title></dc:title>
      </cc:Work>
    </rdf:RDF>
  </metadata>
  <g
     inkscape:label="Capa 1"
     id="layer1"
     transform="translate(11.448857,-178.25496)"
     inkscape:groupmode="layer"
     style="display:inline">
    <g
       id="g1469"
       transform="matrix(0.21084443,0,0,0.21084443,-9.0349283,148.94316)"
       style="display:inline">
      <path
         style="display:inline;fill:#d1e8f6;stroke-width:0.27021277"
         d="m 122.50511,189.45835 c -1.06791,-0.48498 -1.96551,-1.46248 -2.38068,-2.59258 -0.10919,-0.29723 -0.1858,-3.97937 -0.17023,-8.18252 0.0256,-6.92344 -0.0193,-7.74929 -0.47823,-8.78192 -0.73811,-1.66092 -1.8276,-2.82699 -3.39688,-3.63564 -2.86038,-1.47394 -6.65319,-0.73486 -8.80485,1.71574 -1.1699,1.33244 -1.55466,2.31619 -1.85635,4.74619 -0.29972,2.41418 -0.79282,3.45378 -2.11739,4.46408 -0.8386,0.63963 -1.25034,0.75705 -2.6546,0.75705 -1.347266,0 -1.867798,-0.13616 -2.748478,-0.71897 -1.358125,-0.89876 -1.88317,-1.98829 -2.204175,-4.5739 -0.305156,-2.45797 -1.011114,-3.92586 -2.501678,-5.20173 -2.905649,-2.48712 -7.019938,-2.34965 -9.693488,0.3239 -2.051563,2.05157 -2.203761,2.76472 -2.405507,11.27163 l -0.173501,7.31582 -0.760957,1.14954 c -0.827156,1.24955 -2.459052,2.1761 -3.83266,2.1761 -1.973744,0 -4.269788,-1.81482 -4.613412,-3.6465 -0.09703,-0.51718 -0.119688,-4.31347 -0.05036,-8.4362 0.114492,-6.80892 0.181388,-7.6692 0.72998,-9.38735 2.106908,-6.5987 7.358663,-11.03607 14.209832,-12.00631 4.414979,-0.62524 9.912644,1.10219 13.012433,4.08865 l 0.860811,0.82934 1.41749,-1.23999 c 1.68102,-1.47052 4.60849,-2.99184 6.84798,-3.55871 2.06847,-0.52358 6.06474,-0.52273 8.12794,0.002 4.53805,1.15355 9.01088,4.69354 11.00438,8.70933 1.72767,3.4803 1.92858,5.06777 1.71395,13.54212 -0.22588,8.91827 -0.4064,9.58981 -2.92313,10.8743 -1.26279,0.6445 -2.73454,0.64337 -4.15824,-0.003 z m 24.48098,0.35248 c -4.2086,-0.67577 -7.30198,-2.07597 -9.84801,-4.45765 -9.52978,-8.91465 -6.04724,-24.56117 6.33525,-28.4633 3.75614,-1.18368 7.14936,-1.14404 10.76204,0.12571 4.71568,1.65743 8.43602,5.50209 10.37898,10.72579 0.53799,1.44641 0.58799,2.17615 0.68347,9.976 0.0987,8.06239 0.0798,8.46103 -0.45143,9.50225 -1.34447,2.63538 -4.64357,3.38754 -7.12094,1.6235 -1.60293,-1.14139 -1.6747,-1.53321 -1.82234,-9.94863 -0.12487,-7.11795 -0.17853,-7.79497 -0.70869,-8.94118 -1.18062,-2.55253 -3.39551,-4.05564 -6.26103,-4.24897 -2.08831,-0.14089 -3.73507,0.42487 -5.27375,1.81186 -3.70529,3.33997 -2.91437,9.6713 1.49186,11.94245 0.55146,0.28424 1.92448,0.65391 3.05117,0.82148 2.28469,0.33981 3.42973,0.96428 4.40758,2.40377 1.32405,1.94913 0.36615,5.47233 -1.79115,6.58791 -0.8211,0.42461 -2.80661,0.70381 -3.83301,0.53901 z m 22.4065,-0.45202 c -1.3036,-0.87849 -2.07957,-2.17227 -2.27325,-3.79018 -0.0925,-0.77274 -0.13089,-10.76786 -0.0853,-22.21137 0.0918,-23.02962 -0.0191,-21.63309 1.84187,-23.199 2.2431,-1.88745 5.52933,-1.36609 7.07688,1.12273 l 0.6216,0.99968 0.0816,21.61702 c 0.0562,14.89546 -0.009,21.92831 -0.20986,22.61814 -0.34952,1.20043 -1.40783,2.51894 -2.45756,3.06178 -1.20206,0.62161 -3.51212,0.51163 -4.59601,-0.2188 z m 35.84015,0.30139 c -6.7029,-0.68886 -12.76309,-6.04997 -14.32379,-12.67148 -0.53106,-2.25308 -0.53156,-6.19179 -0.001,-8.23798 0.76724,-2.95933 2.22311,-5.48254 4.43879,-7.69297 3.4033,-3.39525 7.2835,-5.00074 12.03196,-4.97841 3.11211,0.0146 4.98859,0.48244 7.83617,1.95354 2.54177,1.31311 5.63183,4.40292 6.94623,6.94564 1.68691,3.26337 1.87319,4.35986 2.02981,11.94775 0.0774,3.74754 0.0573,7.48047 -0.0445,8.29541 -0.34409,2.75423 -2.14231,4.48131 -4.66586,4.48131 -1.55168,0 -2.25235,-0.25269 -3.27805,-1.18217 -1.47205,-1.33396 -1.51797,-1.61099 -1.66316,-10.03166 -0.12723,-7.37941 -0.16916,-7.89917 -0.71941,-8.91702 -1.35104,-2.4992 -3.71523,-3.90252 -6.59083,-3.91215 -5.51758,-0.0185 -8.91551,5.71117 -6.36816,10.73813 1.20556,2.37905 3.20476,3.57315 6.65287,3.97369 1.91123,0.22201 3.2858,1.12575 4.02045,2.64334 0.68141,1.4076 0.71935,2.30213 0.15495,3.65294 -1.06806,2.55622 -2.81589,3.36622 -6.45641,2.99209 z M 1.0905547,189.27311 c -7.3907326,-1.9869 -12.4982077,-8.63581 -12.5390067,-16.32329 -0.01538,-2.8974 0.401064,-4.67041 1.7770711,-7.56596 0.8670355,-1.82452 1.5142269,-2.71541 3.1473498,-4.3325 6.81553152,-6.74861 17.1592781,-6.75689 23.8094131,-0.0191 2.222233,2.25154 3.733949,4.87078 4.45476,7.71844 0.621298,2.45451 0.592926,17.10251 -0.03569,18.42722 -0.649178,1.36805 -2.031527,2.31234 -3.606584,2.46368 -1.764895,0.16958 -2.503605,-0.0482 -3.686429,-1.08671 -1.657693,-1.45546 -1.721088,-1.81418 -1.721088,-9.7387 0,-8.00883 -0.126348,-8.75266 -1.823576,-10.73549 -2.6239958,-3.06555 -7.587725,-3.27792 -10.57174741,-0.45232 -2.73699099,2.59169 -2.93016229,7.20256 -0.42439346,10.12999 1.19990537,1.40182 2.73241837,2.12959 5.23043697,2.48387 3.3652199,0.47727 4.9643549,1.99047 4.9643549,4.6976 0,2.09628 -1.0929616,3.80373 -2.8644737,4.47494 -1.0664809,0.40408 -4.3647788,0.32759 -6.1103986,-0.14169 z m 25.5212613,-0.18803 c -0.602936,-0.34149 -1.342898,-1.08145 -1.684384,-1.68439 -0.593585,-1.04805 -0.609155,-1.27792 -0.613486,-9.0574 -0.005,-8.92912 0.104291,-9.72153 1.824212,-13.22964 2.739892,-5.58855 9.636811,-9.54621 15.867349,-9.10516 5.965622,0.4223 11.266135,3.83551 13.981803,9.00343 1.706204,3.24692 1.885131,4.29895 2.029503,11.93291 0.07107,3.75773 0.04695,7.49066 -0.0536,8.2954 -0.341527,2.7335 -2.146926,4.46278 -4.659219,4.46278 -0.802796,0 -1.803894,-0.17803 -2.224661,-0.39561 -1.058589,-0.54742 -2.106444,-1.86133 -2.438792,-3.05799 -0.158496,-0.57069 -0.280883,-4.04066 -0.283237,-8.03044 -0.004,-6.8244 -0.02246,-7.06422 -0.643949,-8.3766 -1.270176,-2.68222 -3.649597,-4.17643 -6.650663,-4.17643 -2.875607,0 -5.091368,1.33475 -6.430837,3.87386 l -0.729801,1.38342 -0.135107,7.83617 c -0.128988,7.48132 -0.162033,7.87946 -0.729734,8.79221 -1.285248,2.06641 -4.239543,2.77148 -6.425397,1.53348 z m 36.338247,0.31436 c -0.881483,-0.3515 -1.831967,-1.25159 -2.390173,-2.26345 -0.394278,-0.71471 -0.457578,-2.29759 -0.534897,-13.37554 -0.06004,-8.6021 0.008,-13.00349 0.215787,-13.95557 0.497232,-2.27851 2.491364,-3.87155 4.853089,-3.87696 1.164468,-0.003 2.98658,1.08563 3.751012,2.24039 l 0.725256,1.09557 0.07749,12.92453 c 0.05109,8.52105 -0.02037,13.28799 -0.209766,13.99132 -0.336088,1.24813 -1.371622,2.56819 -2.453516,3.12767 -0.865007,0.44731 -3.020027,0.49648 -4.034284,0.092 z m 118.193977,-0.20739 c -1.12393,-0.68537 -1.9422,-1.7739 -2.28195,-3.03565 -0.1815,-0.67403 -0.25366,-5.57033 -0.20358,-13.81313 0.0776,-12.76754 0.0777,-12.76911 0.69996,-13.85448 0.94209,-1.6431 2.23586,-2.40767 4.09234,-2.41839 1.8892,-0.0109 3.44954,0.89942 4.22762,2.46647 0.48115,0.96903 0.52022,1.87911 0.59269,13.8064 0.0511,8.41411 -0.0204,13.13293 -0.20977,13.83612 -0.33616,1.24843 -1.37161,2.56849 -2.4536,3.12801 -1.09652,0.56702 -3.44417,0.50636 -4.46371,-0.11535 z M 63.328512,153.80506 c -2.346852,-1.09717 -3.210744,-3.84776 -1.907127,-6.07222 0.836849,-1.42797 2.043287,-2.07451 3.871012,-2.07451 2.38657,0 4.142634,1.82705 4.142634,4.3101 0,3.10088 -3.276711,5.15959 -6.106519,3.83663 z m 118.429588,0.11741 c -1.28016,-0.46751 -1.91629,-1.03124 -2.46245,-2.18221 -0.90277,-1.90243 -0.18528,-4.36574 1.6178,-5.55432 1.09179,-0.7197 3.45844,-0.71392 4.64798,0.0114 2.66863,1.62708 2.62851,5.77263 -0.0709,7.32974 -1.18082,0.68112 -2.55224,0.82642 -3.73239,0.39544 z"
         id="path1483"
         inkscape:connector-curvature="0" />
      <path
         style="display:inline;fill:#168ed5;stroke-width:0.27021277"
         d="m 170.2436,188.70386 c -0.5096,-0.26786 -1.17838,-0.83028 -1.48617,-1.24982 -0.5537,-0.7547 -0.56038,-0.99417 -0.62934,-22.56276 -0.065,-20.34436 -0.038,-21.86276 0.40532,-22.74033 1.36834,-2.70878 5.20687,-2.85934 6.60148,-0.25894 0.46651,0.86985 0.4937,2.12114 0.49274,22.677 -0.001,21.08821 -0.0172,21.78286 -0.52752,22.61985 -1.06374,1.74458 -3.16983,2.40158 -4.85651,1.515 z M 2.7110403,188.61368 c -7.9028125,-1.65183 -13.2320273,-8.01397 -13.2542933,-15.8233 -0.0061,-2.13627 0.8351343,-5.38552 1.9395019,-7.49135 2.5514958,-4.86527 8.3464513,-8.29883 13.9875773,-8.28777 6.9706598,0.0137 13.1765958,4.61729 15.2935888,11.34494 0.378224,1.20197 0.491544,2.87072 0.592582,8.72636 0.149503,8.66443 0.07478,9.35227 -1.14894,10.57599 -1.607152,1.60715 -3.926907,1.5072 -5.539215,-0.23866 l -0.675532,-0.73148 -0.135107,-7.8826 -0.135106,-7.88259 -0.751132,-1.52955 c -0.825967,-1.68194 -2.247957,-3.11431 -4.0329686,-4.06242 -0.9462342,-0.50259 -1.5847737,-0.61634 -3.4573884,-0.61589 -1.9637844,5.4e-4 -2.4927048,0.10436 -3.6478722,0.7165 -3.0152541,1.59782 -4.5935469,4.19222 -4.5735257,7.51796 0.00987,1.63878 0.1541799,2.32205 0.7541489,3.57056 1.3468901,2.80284 3.6259339,4.26307 7.5105247,4.81215 1.3826373,0.19543 1.8395522,0.39955 2.6026717,1.16267 1.6148538,1.61485 1.3795363,4.27275 -0.5001422,5.64907 -0.8227382,0.60242 -3.1232163,0.82602 -4.8293729,0.46941 z M 27.337735,188.354 c -0.917813,-0.41655 -1.275631,-0.78776 -1.713482,-1.77759 -0.524577,-1.1859 -0.547694,-1.64748 -0.443573,-8.85746 0.10674,-7.39119 0.130478,-7.66872 0.839143,-9.8106 2.171852,-6.56423 8.212336,-10.90109 15.183325,-10.90109 4.050614,0 7.611207,1.40949 10.615814,4.20234 1.999447,1.85854 3.275943,3.7859 4.332056,6.5409 0.685973,1.78945 0.699889,1.96497 0.787111,9.92804 0.09802,8.94836 0.04599,9.28164 -1.642032,10.51909 -0.949727,0.69623 -3.054717,0.72923 -4.070263,0.0638 -1.606558,-1.05266 -1.639535,-1.2303 -1.786547,-9.62417 -0.128291,-7.32504 -0.16644,-7.78219 -0.75642,-9.06512 -0.784841,-1.70666 -2.237988,-3.22126 -3.972303,-4.1403 -1.155168,-0.61214 -1.684088,-0.71603 -3.647872,-0.7165 -1.872615,-5.4e-4 -2.511155,0.1133 -3.457389,0.61589 -1.849787,0.98251 -3.161835,2.34946 -4.002683,4.17017 l -0.781417,1.69201 -0.135107,7.7476 -0.135106,7.7476 -0.675532,0.73137 c -0.717699,0.77703 -2.098632,1.47626 -2.896108,1.46644 -0.264854,-0.003 -1.003581,-0.24286 -1.641615,-0.53244 z m 36.242572,0.25397 c -1.064049,-0.32311 -2.179228,-1.61335 -2.388508,-2.76345 -0.0871,-0.47863 -0.122331,-6.67449 -0.07831,-13.76858 l 0.08005,-12.89834 0.987428,-0.98724 c 1.868834,-1.86848 4.93165,-1.45002 6.009337,0.82104 0.380087,0.80098 0.433959,2.53995 0.433075,13.97925 -0.0011,12.47288 -0.02486,13.10359 -0.527525,13.928 -0.964417,1.58168 -2.714233,2.23632 -4.51555,1.68932 z m 58.924853,-0.22821 c -1.58751,-0.96805 -1.71934,-1.80185 -1.54821,-9.79235 0.1487,-6.94311 0.137,-7.16467 -0.46134,-8.73667 -0.41924,-1.10147 -1.0533,-2.05229 -1.99962,-2.99861 -1.77403,-1.77404 -3.44909,-2.37857 -6.18511,-2.23222 -2.42356,0.12963 -4.12833,0.94042 -5.73526,2.72771 -1.28098,1.42476 -1.90819,2.99782 -2.17983,5.46709 -0.31913,2.9009 -1.47518,4.1883 -3.76101,4.1883 -2.490878,0 -3.748457,-1.49416 -3.994218,-4.74563 -0.323069,-4.27422 -3.831865,-7.50173 -8.155532,-7.50173 -3.241661,0 -5.901976,1.67334 -7.34305,4.61879 -0.670933,1.37134 -0.756761,1.89754 -0.932648,5.71786 -0.106539,2.31413 -0.203227,5.64829 -0.214857,7.40923 -0.02399,3.63368 -0.380297,4.77225 -1.755902,5.61109 -1.663845,1.01461 -4.093242,0.41295 -5.208542,-1.28993 -0.44537,-0.68001 -0.480095,-1.37664 -0.401345,-8.05173 0.05556,-4.70943 0.21492,-7.93856 0.448248,-9.08288 1.115982,-5.47312 5.079768,-9.90163 10.544267,-11.78052 2.934097,-1.00884 6.932332,-1.06807 9.626416,-0.14259 2.077187,0.71357 4.463298,2.0907 5.950528,3.43432 0.573483,0.51811 1.176475,0.94202 1.339985,0.94202 0.16351,0 0.9016,-0.54333 1.6402,-1.20741 1.65901,-1.49158 3.60025,-2.61366 5.89713,-3.40867 2.62997,-0.91029 6.94768,-0.85751 9.69905,0.11858 2.58485,0.91701 4.14263,1.8427 5.94744,3.53419 1.99807,1.8726 3.42255,4.15983 4.25641,6.83429 l 0.70106,2.24854 -0.12001,7.89715 c -0.13294,8.74819 -0.21095,9.16287 -1.91995,10.2049 -1.12016,0.68301 -3.02913,0.6908 -4.1343,0.0169 z m 22.10352,-0.0338 c -6.83342,-1.79025 -11.47907,-7.50233 -11.86242,-14.58551 -0.25791,-4.76539 1.24708,-8.69181 4.617,-12.04547 5.30671,-5.28111 13.50064,-6.21021 19.66,-2.22922 2.27113,1.4679 4.29354,3.63774 5.4606,5.85865 1.67371,3.18508 1.79597,4.0705 1.79484,12.99888 -10e-4,8.95389 -0.0464,9.18648 -1.96697,10.09784 -1.20081,0.56982 -2.15565,0.5714 -3.34812,0.006 -1.80379,-0.85595 -1.82879,-0.97592 -1.98767,-9.53904 -0.14118,-7.60908 -0.15277,-7.73497 -0.85062,-9.24033 -0.85999,-1.85511 -2.38042,-3.42785 -4.16112,-4.30426 -1.9405,-0.95505 -5.09235,-0.91558 -7.03378,0.0881 -5.05968,2.61573 -6.21127,9.0737 -2.35347,13.198 1.39429,1.49062 3.12108,2.30341 5.6564,2.66246 2.06051,0.2918 2.98769,0.84253 3.6967,2.19576 0.91355,1.74364 -0.0158,4.23641 -1.868,5.0103 -1.21464,0.50751 -3.08576,0.44861 -5.45337,-0.17167 z m 37.6787,0.28072 c -0.94594,-0.29835 -1.72787,-0.98258 -2.22789,-1.94951 -0.55954,-1.08203 -0.55771,-26.37835 0.002,-27.45407 1.3787,-2.64981 4.77539,-2.98774 6.51078,-0.64774 0.52096,0.70246 0.54297,1.21053 0.61112,14.10424 0.0681,12.8868 0.0513,13.40709 -0.45997,14.23905 -0.95769,1.55836 -2.73765,2.24371 -4.43603,1.70803 z m 22.07601,-0.0303 c -4.55266,-0.7605 -9.02579,-4.10068 -11.16319,-8.3358 -4.75496,-9.42166 0.32205,-20.42531 10.53467,-22.8323 8.53316,-2.01116 17.23822,3.53965 19.04471,12.14392 0.291,1.386 0.39827,3.8051 0.4014,9.05212 0.004,6.28926 -0.0532,7.27339 -0.46818,8.08718 -1.31632,2.58147 -4.66746,2.82932 -6.39793,0.47319 -0.52697,-0.7175 -0.56752,-1.21426 -0.69474,-8.5117 l -0.1351,-7.74973 -0.74862,-1.52441 c -1.52901,-3.11353 -4.69711,-5.00166 -7.9672,-4.74832 -5.92147,0.45874 -9.41672,6.35922 -6.96639,11.76027 1.01587,2.23921 2.61932,3.65927 4.94176,4.3766 0.95989,0.29648 2.10924,0.53905 2.55414,0.53905 2.92572,0 4.72409,3.29255 3.11443,5.70206 -1.13918,1.70524 -2.74147,2.1205 -6.04976,1.56787 z M 63.304936,152.69731 c -1.102784,-0.67242 -1.435862,-1.31563 -1.435862,-2.7728 0,-1.69428 0.982083,-2.98808 2.499468,-3.2928 1.162982,-0.23356 2.328777,0.11346 3.154215,0.93889 2.765044,2.76505 -0.861576,7.17316 -4.217821,5.12671 z m 118.204234,0.10399 c -2.20219,-1.1949 -2.02357,-4.8541 0.29055,-5.95223 1.82511,-0.86607 3.93216,0.0362 4.61839,1.97763 0.33635,0.95159 0.33511,1.22724 -0.01,2.13293 -0.73811,1.93933 -3.09,2.8234 -4.89934,1.84167 z"
         id="path1471"
         inkscape:connector-curvature="0" />
    </g>
  </g>
</svg>
