<?xml version="1.0" encoding="UTF-8" standalone="no"?>
<!-- Created with Inkscape (http://www.inkscape.org/) -->

<svg
   xmlns:dc="http://purl.org/dc/elements/1.1/"
   xmlns:cc="http://creativecommons.org/ns#"
   xmlns:rdf="http://www.w3.org/1999/02/22-rdf-syntax-ns#"
   xmlns:svg="http://www.w3.org/2000/svg"
   xmlns="http://www.w3.org/2000/svg"
   xmlns:sodipodi="http://sodipodi.sourceforge.net/DTD/sodipodi-0.dtd"
   xmlns:inkscape="http://www.inkscape.org/namespaces/inkscape"
   width="143"
   height="34"
   viewBox="0 0 37.835416 8.9958322"
   version="1.1"
   id="svg8"
   sodipodi:docname="animalia2.svg"
   inkscape:version="0.92.5 (2060ec1f9f, 2020-04-08)">
  <defs
     id="defs2" />
  <sodipodi:namedview
     id="base"
     pagecolor="#ffffff"
     bordercolor="#666666"
     borderopacity="1.0"
     inkscape:pageopacity="0.0"
     inkscape:pageshadow="2"
     inkscape:zoom="3.4459877"
     inkscape:cx="120.31909"
     inkscape:cy="14.37635"
     inkscape:document-units="mm"
     inkscape:current-layer="layer1"
     showgrid="false"
     fit-margin-top="0"
     fit-margin-left="0"
     fit-margin-right="0"
     fit-margin-bottom="0"
     inkscape:pagecheckerboard="true"
     units="px"
     inkscape:window-width="1600"
     inkscape:window-height="835"
     inkscape:window-x="0"
     inkscape:window-y="0"
     inkscape:window-maximized="1" />
  <metadata
     id="metadata5">
    <rdf:RDF>
      <cc:Work
         rdf:about="">
        <dc:format>image/svg+xml</dc:format>
        <dc:type
           rdf:resource="http://purl.org/dc/dcmitype/StillImage" />
        <dc:title></dc:title>
      </cc:Work>
    </rdf:RDF>
  </metadata>
  <g
     inkscape:label="Capa 1"
     inkscape:groupmode="layer"
     id="layer1"
     transform="translate(-77.555108,-81.922847)">
    <g
       id="g75"
       style="display:inline;image-rendering:auto"
       transform="matrix(0.23727678,0,0,0.26176465,70.203591,63.89464)">
      <path
         style="display:inline;fill:#49a6dd;stroke-width:0.27021277"
         d="m 31.467196,89.066009 c 0.0828,-9.283042 0.110919,-9.738434 0.690188,-11.176452 1.277473,-3.171289 3.330383,-4.992879 6.559119,-5.820042 4.406284,-1.128838 9.188827,0.794102 11.0504,4.443087 1.244298,2.439027 1.370869,3.659353 1.370869,13.217222 v 9.011669 l -1.013298,-0.08386 -1.013298,-0.08387 -0.139339,-9.457447 C 48.81691,78.600811 48.827655,78.665927 46.894212,76.525836 45.270658,74.728755 44.105189,74.25849 41.275006,74.25849 c -1.975123,0 -2.637619,0.109762 -3.527063,0.584363 -1.44142,0.769132 -2.684309,2.067395 -3.432357,3.585277 -0.584506,1.186036 -0.611445,1.574261 -0.741644,10.688187 l -0.135106,9.457447 -1.028977,0.0848 -1.028977,0.0848 z m 3.789123,4.998388 0.07401,-4.677867 h 5.944681 5.944681 l 0.074,4.677867 0.07401,4.677866 -1.01975,-0.08425 -1.019751,-0.08425 -0.135106,-3.512766 -0.135106,-3.512766 H 41.275009 37.49203 l -0.135106,3.512766 -0.135107,3.512766 -1.01975,0.08425 -1.01975,0.08425 z m 19.033935,4.464331 c -0.26837,-0.26837 -0.207271,-15.909727 0.06949,-17.789007 0.581509,-3.948615 2.299603,-6.519403 5.365827,-8.028901 1.66036,-0.817392 2.008918,-0.887705 4.376733,-0.882897 2.252613,0.0046 2.78274,0.10158 4.260853,0.77968 2.998608,1.375646 4.891383,4.097292 5.467579,7.861905 0.171953,1.123462 0.259156,5.183037 0.21476,9.997873 l -0.07474,8.106383 -0.997069,0.0829 -0.997069,0.0829 -0.09498,-9.270133 c -0.109068,-10.645603 -0.176,-11.020553 -2.356531,-13.201083 -1.461875,-1.461876 -3.193671,-2.148835 -5.417122,-2.148835 -3.543125,0 -6.25458,1.961865 -7.274285,5.263285 -0.520038,1.683685 -0.561886,2.471108 -0.561886,10.572626 v 8.753451 h -0.900709 c -0.49539,0 -0.981773,-0.08106 -1.080851,-0.180142 z m 3.706434,-0.20985 c -0.08231,-0.214498 -0.108893,-4.266474 -0.05907,-9.004392 l 0.09058,-8.614396 0.812708,-1.588414 c 0.683428,-1.335737 1.042954,-1.708695 2.260111,-2.344546 3.48167,-1.818846 7.672681,-0.205299 8.730002,3.361064 0.243316,0.820706 0.343711,3.638363 0.349137,9.798761 l 0.0076,8.646809 -0.999534,0.08304 -0.999533,0.08304 -0.08132,-8.86496 c -0.07273,-7.928363 -0.132663,-8.959004 -0.567309,-9.755101 -1.419109,-2.599242 -5.445079,-2.599242 -6.864188,0 -0.434591,0.795998 -0.494584,1.826089 -0.567233,9.73961 l -0.08125,8.849468 H 59.08688 c -0.570335,0 -0.999439,-0.153502 -1.090189,-0.389992 z M 77.618623,85.468444 V 72.195395 l 1.013298,0.08386 1.013298,0.08387 v 13.105319 13.10532 l -1.013298,0.08387 -1.013298,0.08386 z m 3.9134,12.919919 c -0.07484,-0.195264 -0.104405,-6.130823 -0.06569,-13.190131 l 0.07038,-12.835107 h 0.945745 0.945744 v 13.105319 13.10532 l -0.88005,0.08481 c -0.543952,0.05242 -0.932015,-0.05077 -1.016124,-0.270213 z m 5.599003,-9.322354 c 0.0828,-9.283042 0.110919,-9.738434 0.690188,-11.176452 1.277471,-3.171289 3.330383,-4.992879 6.559118,-5.820042 3.082827,-0.789784 6.094028,-0.174496 8.451988,1.727022 l 1.02966,0.830339 1.3843,-1.047742 c 4.74189,-3.588999 11.93851,-1.789913 14.40254,3.600494 1.02752,2.24786 1.2242,4.533346 1.14348,13.287753 l -0.0747,8.106383 -0.99707,0.0829 -0.99707,0.0829 -0.0838,-9.270133 -0.0838,-9.270131 -0.78766,-1.705928 c -1.3306,-2.881837 -3.73611,-4.377568 -7.03,-4.37122 -2.29506,0.0044 -4.08508,1.066062 -6.374,3.78034 -0.32562,0.386136 -0.62384,0.548552 -0.69614,0.379126 -0.42171,-0.988322 -1.962,-2.654168 -3.04016,-3.287971 -1.11923,-0.657951 -1.523949,-0.738815 -3.689064,-0.73709 -1.972629,0.0016 -2.638741,0.112299 -3.527063,0.586301 -1.44142,0.769132 -2.68431,2.067395 -3.432356,3.585277 -0.584508,1.186036 -0.611446,1.574261 -0.741645,10.688187 l -0.135106,9.457447 -1.028976,0.0848 -1.028978,0.0848 z m 3.728022,1.061409 c 0,-9.847239 0.142851,-10.810086 1.858348,-12.525581 1.093978,-1.09398 2.469172,-1.587043 4.432779,-1.589333 2.303415,-0.0027 4.043175,1.046218 5.151655,3.10594 0.55785,1.036567 0.58512,1.46074 0.66548,10.352919 l 0.0838,9.272068 -1.02954,-0.08483 -1.02953,-0.08483 -0.13511,-8.917022 c -0.12298,-8.116711 -0.18083,-8.992552 -0.6446,-9.758588 -0.702134,-1.159752 -1.775368,-1.725455 -3.273484,-1.725455 -1.498117,0 -2.57135,0.565703 -3.273482,1.725455 -0.463769,0.766036 -0.521624,1.641877 -0.644603,9.758588 l -0.135107,8.917022 -1.013298,0.08387 -1.013298,0.08386 z m 13.887202,8.198629 c -0.0808,-0.210553 -0.10738,-4.262594 -0.0591,-9.004539 l 0.0878,-8.621714 0.81063,-1.601313 c 0.69447,-1.371827 1.02089,-1.707806 2.27771,-2.344399 3.46167,-1.753369 7.70509,-0.166237 8.64966,3.235168 0.17109,0.616062 0.28405,4.528811 0.28496,9.870152 l 0.001,8.849468 h -0.93205 -0.93205 l -0.0813,-8.849468 c -0.0726,-7.913521 -0.13264,-8.943612 -0.56723,-9.73961 -1.41911,-2.599242 -5.44508,-2.599242 -6.86419,0 -0.43439,0.795631 -0.49494,1.829734 -0.57028,9.73961 l -0.0843,8.849468 h -0.93749 c -0.55957,0 -0.99671,-0.154323 -1.08439,-0.382823 z m 19.13371,-9.260038 c 0.0828,-9.283042 0.11092,-9.738434 0.69019,-11.176452 1.27747,-3.171289 3.33038,-4.992879 6.55912,-5.820042 4.40628,-1.128838 9.18883,0.794102 11.0504,4.443087 1.2443,2.439027 1.37087,3.659353 1.37087,13.217222 v 9.011669 l -1.0133,-0.08386 -1.0133,-0.08387 -0.13934,-9.457447 c -0.15492,-10.515506 -0.14418,-10.45039 -2.07762,-12.590481 -1.62356,-1.797081 -2.78902,-2.267346 -5.61921,-2.267346 -1.97512,0 -2.63762,0.109762 -3.52706,0.584363 -1.44142,0.769132 -2.68431,2.067395 -3.43236,3.585277 -0.58451,1.186036 -0.61144,1.574261 -0.74164,10.688187 l -0.13511,9.457447 -1.02897,0.0848 -1.02898,0.0848 z m 3.78913,4.998388 0.074,-4.677867 h 5.94468 5.94468 l 0.074,4.677867 0.074,4.677866 -1.01975,-0.08425 -1.01975,-0.08425 -0.1351,-3.512766 -0.13511,-3.512766 h -3.78298 -3.78298 l -0.1351,3.512766 -0.13511,3.512766 -1.01975,0.08425 -1.01975,0.08425 z m 19.51801,4.306708 c -0.0712,-0.185772 -0.0978,-6.113565 -0.0591,-13.172873 l 0.0704,-12.835107 h 0.94575 0.94574 l 0.0704,11.875194 c 0.0539,9.087851 0.14904,11.925117 0.40532,12.087885 0.18419,0.116978 2.37162,0.214552 4.86095,0.216827 l 4.52607,0.0041 v 1.080851 1.080851 h -5.81806 c -4.40526,0 -5.84949,-0.08202 -5.94751,-0.337765 z M 161.65479,85.468444 V 72.195395 l 1.0133,0.08386 1.0133,0.08387 v 13.105319 13.10532 l -1.0133,0.08387 -1.0133,0.08386 z m 3.9134,12.919919 c -0.0748,-0.195264 -0.1044,-6.130823 -0.0657,-13.190131 l 0.0704,-12.835107 h 0.94574 0.94575 v 13.105319 13.10532 l -0.88005,0.08481 c -0.54395,0.05242 -0.93202,-0.05077 -1.01613,-0.270213 z m 5.59901,-9.322354 c 0.0828,-9.283042 0.11092,-9.738434 0.69018,-11.176452 1.27748,-3.171289 3.33039,-4.992879 6.55912,-5.820042 4.40629,-1.128838 9.18883,0.794102 11.0504,4.443087 1.2443,2.439027 1.37087,3.659353 1.37087,13.217222 v 9.011669 l -1.0133,-0.08386 -1.01329,-0.08387 -0.13934,-9.457447 c -0.15493,-10.515506 -0.14418,-10.45039 -2.07763,-12.590481 -1.62355,-1.797081 -2.78902,-2.267346 -5.6192,-2.267346 -1.97513,0 -2.63762,0.109762 -3.52707,0.584363 -1.44142,0.769132 -2.68431,2.067395 -3.43235,3.585277 -0.58451,1.186036 -0.61145,1.574261 -0.74165,10.688187 l -0.1351,9.457447 -1.02898,0.0848 -1.02898,0.0848 z m 3.78912,4.998388 0.074,-4.677867 h 5.94468 5.94468 l 0.074,4.677867 0.074,4.677866 -1.01975,-0.08425 -1.01975,-0.08425 -0.13511,-3.512766 -0.13511,-3.512766 h -3.78297 -3.78298 l -0.13511,3.512766 -0.13511,3.512766 -1.01975,0.08425 -1.01975,0.08425 z m -23.77538,0.366616 c -0.2671,-0.169558 -0.32558,-2.580902 -0.27021,-11.142139 l 0.0707,-10.925749 1.0133,-0.08387 1.01329,-0.08386 v 9.689929 c 0,7.176329 0.0841,9.774041 0.32426,10.014184 0.20808,0.208083 1.273,0.324256 2.97234,0.324256 h 2.64809 v 1.051941 c 0,0.709965 -0.13896,1.105262 -0.42742,1.215957 -0.63347,0.243086 -6.94799,0.190941 -7.34431,-0.06065 z M 35.195219,84.436637 c 0,-3.667186 0.488916,-5.46537 1.858346,-6.8348 1.057095,-1.057094 2.468113,-1.587826 4.221441,-1.587826 1.753328,0 3.164346,0.530732 4.22144,1.587826 1.36943,1.36943 1.858347,3.167614 1.858347,6.8348 v 2.923297 h -6.079787 -6.079787 z m 9.944045,-1.258015 c 0.141673,-3.284729 -1.183612,-5.005923 -3.854461,-5.005923 -2.578084,0 -3.927882,1.645385 -3.927882,4.788032 0,1.032469 0.08434,1.961559 0.187426,2.064643 0.103085,0.103085 1.835824,0.15375 3.850532,0.112589 l 3.663106,-0.07484 z m 82.468716,1.258015 c 0,-3.667186 0.48892,-5.46537 1.85835,-6.8348 2.14552,-2.145523 6.29736,-2.145523 8.44288,0 1.36943,1.36943 1.85835,3.167614 1.85835,6.8348 v 2.923297 h -6.07979 -6.07979 z m 9.94405,-1.258015 c 0.14167,-3.284729 -1.18361,-5.005923 -3.85446,-5.005923 -2.57808,0 -3.92788,1.645385 -3.92788,4.788032 0,1.032469 0.0843,1.961559 0.18742,2.064643 0.10309,0.103085 1.83583,0.15375 3.85054,0.112589 l 3.6631,-0.07484 z m 37.34319,1.258015 c 0,-3.667186 0.48892,-5.46537 1.85835,-6.8348 2.14552,-2.145523 6.29735,-2.145523 8.44288,0 1.36943,1.36943 1.85834,3.167614 1.85834,6.8348 v 2.923297 h -6.07978 -6.07979 z m 9.94404,-1.258015 c 0.14168,-3.284729 -1.18361,-5.005923 -3.85446,-5.005923 -2.57808,0 -3.92788,1.645385 -3.92788,4.788032 0,1.032469 0.0843,1.961559 0.18743,2.064643 0.10308,0.103085 1.83582,0.15375 3.85053,0.112589 l 3.6631,-0.07484 z"
         id="path81"
         inkscape:connector-curvature="0" />
      <path
         style="display:inline;fill:#2896d8;stroke-width:0.27021277"
         d="m 31.682453,89.410152 c 0,-8.744963 0.03574,-9.443477 0.565742,-11.057985 1.291599,-3.93448 4.202801,-6.116749 8.457831,-6.340081 4.930025,-0.25876 8.397946,2.160215 9.800518,6.836145 0.425831,1.419648 0.486921,2.74704 0.491216,10.673405 l 0.0049,9.052128 H 50.192026 49.381388 L 49.246282,89.251423 C 49.114749,80.175622 49.094288,79.89173 48.47259,78.516667 47.755289,76.930151 46.016431,75.18288 44.468245,74.492946 c -1.379963,-0.614966 -4.984656,-0.637587 -6.351922,-0.03986 -1.511669,0.660855 -3.325565,2.485835 -4.038901,4.063582 -0.621698,1.375063 -0.642159,1.658955 -0.773693,10.734756 l -0.135106,9.322341 -0.743085,0.0855 -0.743085,0.0855 z m 3.782978,4.723049 v -4.611565 h 5.809575 5.809574 v 4.611565 4.611565 l -0.743085,-0.0855 -0.743085,-0.0855 -0.07284,-3.37766 c -0.06006,-2.784813 -0.15212,-3.436944 -0.524518,-3.715425 -0.303262,-0.226782 -1.527585,-0.337766 -3.726044,-0.337766 -2.198459,0 -3.422783,0.110984 -3.726044,0.337766 -0.372398,0.278481 -0.464461,0.930612 -0.524518,3.715425 l -0.07284,3.37766 -0.743086,0.0855 -0.743085,0.0855 z m 19.095036,4.395527 c -0.313961,-0.313961 -0.204593,-17.240977 0.121398,-18.789005 0.677916,-3.219202 2.640447,-5.822016 5.32546,-7.062911 1.828608,-0.845103 6.372711,-0.845103 8.201319,0 1.762031,0.814334 3.604033,2.598208 4.379533,4.241327 1.132057,2.398586 1.278755,4.01533 1.192649,13.143923 l -0.08029,8.511702 -0.718539,0.08313 -0.718539,0.08313 -0.106313,-9.135259 c -0.100203,-8.610208 -0.140127,-9.220681 -0.694592,-10.621432 -0.815165,-2.059355 -1.96298,-3.346527 -3.779766,-4.238676 -1.287764,-0.632367 -1.890509,-0.759116 -3.583,-0.753458 -4.288106,0.01434 -7.09816,2.502121 -7.814777,6.918544 -0.15363,0.946804 -0.280246,5.338936 -0.281369,9.760292 l -0.002,8.03883 h -0.630497 c -0.346773,0 -0.71156,-0.08106 -0.810638,-0.180142 z m 3.71233,-0.194486 c -0.07907,-0.206045 -0.105648,-4.309902 -0.05907,-9.119681 0.083,-8.570735 0.09746,-8.770993 0.7254,-10.046393 0.916332,-1.86114 2.302129,-2.709617 4.64145,-2.8418 2.197368,-0.124162 3.491411,0.258287 4.589545,1.35642 1.715495,1.715496 1.737274,1.863456 1.742602,11.838848 l 0.0048,9.052128 -0.720322,0.0833 -0.720323,0.08331 -0.09032,-8.730116 c -0.08373,-8.09319 -0.129742,-8.807696 -0.630741,-9.793526 -0.818677,-1.610937 -1.769848,-2.17914 -3.647872,-2.17914 -1.878025,0 -2.829196,0.568203 -3.647873,2.17914 -0.501131,0.986095 -0.546781,1.697016 -0.627847,9.777775 l -0.08742,8.714362 h -0.664145 c -0.365279,0 -0.728834,-0.168583 -0.807901,-0.374628 z M 77.888836,85.468444 V 72.192122 l 0.743085,0.0855 0.743085,0.0855 v 13.105319 13.10532 l -0.743085,0.0855 -0.743085,0.0855 z m 3.914048,12.921613 c -0.0752,-0.196196 -0.105053,-6.132517 -0.06634,-13.191825 l 0.07038,-12.835107 h 0.675532 0.675532 v 13.105319 13.10532 l -0.609187,0.08651 c -0.335053,0.04758 -0.670714,-0.07402 -0.745914,-0.270213 z m 5.543399,-8.979905 c 0,-8.744963 0.03574,-9.443477 0.565741,-11.057985 0.837863,-2.552305 2.188243,-4.177092 4.416123,-5.31351 1.756804,-0.896128 1.997267,-0.945734 4.583446,-0.945537 2.428826,1.85e-4 2.878144,0.07879 4.080437,0.713879 0.74308,0.392519 1.5827,0.970005 1.86581,1.283303 0.69712,0.771438 1.03623,0.722848 2.44153,-0.349839 1.80703,-1.379339 3.56835,-1.87047 6.19504,-1.727447 2.62967,0.143185 4.2134,0.776611 5.95458,2.381576 1.42387,1.312477 2.4121,3.231276 2.8504,5.53449 0.20245,1.06381 0.28093,4.547978 0.22824,10.13298 l -0.0803,8.511702 -0.71854,0.08313 -0.71854,0.08313 -0.10631,-9.135259 c -0.10021,-8.610208 -0.14013,-9.220681 -0.6946,-10.621432 -1.14414,-2.890457 -3.37451,-4.628564 -6.43944,-5.018212 -2.38244,-0.302883 -4.2005,0.417377 -6.26522,2.482095 -0.96002,0.960022 -1.76461,1.710592 -1.78797,1.667933 -0.59423,-1.08496 -1.77434,-2.484723 -2.54375,-3.01721 -1.866575,-1.291806 -5.186085,-1.547611 -7.505732,-0.5784 -1.389153,0.580425 -3.227399,2.451974 -3.925997,3.997123 -0.621697,1.375063 -0.642158,1.658955 -0.773692,10.734756 l -0.135106,9.322341 -0.743085,0.0855 -0.743085,0.0855 z m 3.840369,0.06286 c 0.08753,-10.444436 0.108925,-10.563789 2.191696,-12.224449 0.898389,-0.716315 1.291906,-0.836814 3.017349,-0.923945 1.091322,-0.05511 2.41193,0.04096 2.934684,0.213483 1.207709,0.39858 2.756899,2.101823 3.128329,3.43941 0.17515,0.630764 0.28727,4.482249 0.28819,9.89984 l 0.002,8.867416 -0.74308,-0.0855 -0.74309,-0.0855 -0.13511,-8.965344 c -0.1284,-8.520744 -0.16273,-9.00232 -0.69222,-9.710964 -1.030893,-1.379684 -1.933509,-1.859863 -3.496074,-1.859863 -1.562565,0 -2.465181,0.480179 -3.49607,1.859863 -0.529492,0.708644 -0.563823,1.19022 -0.692228,9.710964 l -0.135107,8.965344 -0.753247,0.08648 -0.753248,0.08648 z m 13.842978,8.887347 c -0.0812,-0.211587 -0.1109,-4.323588 -0.066,-9.137777 0.08,-8.582317 0.0941,-8.77846 0.72232,-10.054413 0.95744,-1.944619 2.30562,-2.72927 4.87889,-2.839549 2.74372,-0.117583 4.06263,0.549702 5.2604,2.66143 l 0.83915,1.479459 v 9.052128 9.052128 h -0.81064 -0.81064 l -0.13511,-9.10042 c -0.12864,-8.665365 -0.16186,-9.136865 -0.69473,-9.862766 -1.6907,-2.303098 -5.33972,-2.203613 -6.72692,0.183398 -0.51404,0.884523 -0.55837,1.522978 -0.68473,9.862766 l -0.1351,8.917022 -0.74463,0.08565 c -0.45857,0.05275 -0.80133,-0.06213 -0.89224,-0.299055 z m 19.06559,-8.950206 c 0,-8.744963 0.0357,-9.443477 0.56574,-11.057985 1.2916,-3.93448 4.2028,-6.116749 8.45783,-6.340081 4.93003,-0.25876 8.39795,2.160215 9.80052,6.836145 0.42583,1.419648 0.48692,2.74704 0.49122,10.673405 l 0.005,9.052128 h -0.81064 -0.81064 l -0.13509,-9.322341 c -0.13154,-9.075801 -0.152,-9.359693 -0.77369,-10.734756 -0.7173,-1.586516 -2.45616,-3.333787 -4.00435,-4.023721 -1.37996,-0.614966 -4.98465,-0.637587 -6.35192,-0.03986 -1.51167,0.660855 -3.32557,2.485835 -4.0389,4.063582 -0.6217,1.375063 -0.64216,1.658955 -0.77369,10.734756 l -0.13511,9.322341 -0.74309,0.0855 -0.74308,0.0855 z m 3.78298,4.723049 v -4.611565 h 5.80957 5.80958 v 4.611565 4.611565 l -0.74309,-0.0855 -0.74308,-0.0855 -0.0728,-3.37766 c -0.0601,-2.784813 -0.15213,-3.436944 -0.52452,-3.715425 -0.30327,-0.226782 -1.52759,-0.337766 -3.72605,-0.337766 -2.19846,0 -3.42278,0.110984 -3.72604,0.337766 -0.3724,0.278481 -0.46446,0.930612 -0.52452,3.715425 l -0.0728,3.37766 -0.74309,0.0855 -0.74308,0.0855 z m 19.57911,4.237904 c -0.0712,-0.185772 -0.0978,-6.113565 -0.0591,-13.172873 l 0.0704,-12.835107 h 0.67554 0.67553 l 0.14215,12.024468 c 0.0782,6.613458 0.16938,12.054868 0.20266,12.092022 0.0333,0.03715 2.18843,0.06755 4.78923,0.06755 h 4.72872 v 1.080851 1.080851 h -5.54784 c -4.18909,0 -5.57955,-0.08272 -5.6773,-0.337765 z m 14.4677,-12.902661 V 72.192122 l 0.74308,0.0855 0.74309,0.0855 v 13.105319 13.10532 l -0.74309,0.0855 -0.74308,0.0855 z m 3.91404,12.921613 c -0.0752,-0.196196 -0.10505,-6.132517 -0.0663,-13.191825 l 0.0704,-12.835107 h 0.67553 0.67554 v 13.105319 13.10532 l -0.60919,0.08651 c -0.33505,0.04758 -0.67072,-0.07402 -0.74592,-0.270213 z m 5.5434,-8.979905 c 0,-8.744963 0.0357,-9.443477 0.56574,-11.057985 1.2916,-3.93448 4.20281,-6.116749 8.45784,-6.340081 4.93002,-0.25876 8.39794,2.160215 9.80051,6.836145 0.42584,1.419648 0.48693,2.74704 0.49122,10.673405 l 0.005,9.052128 h -0.81064 -0.81063 l -0.1351,-9.322341 c -0.13153,-9.075801 -0.15199,-9.359693 -0.77369,-10.734756 -0.7173,-1.586516 -2.45616,-3.333787 -4.00434,-4.023721 -1.37997,-0.614966 -4.98466,-0.637587 -6.35193,-0.03986 -1.51167,0.660855 -3.32556,2.485835 -4.0389,4.063582 -0.6217,1.375063 -0.64216,1.658955 -0.77369,10.734756 l -0.13511,9.322341 -0.74308,0.0855 -0.74309,0.0855 z m 3.78298,4.723049 v -4.611565 h 5.80958 5.80957 v 4.611565 4.611565 l -0.74308,-0.0855 -0.74309,-0.0855 -0.0728,-3.37766 c -0.0601,-2.784813 -0.15212,-3.436944 -0.52452,-3.715425 -0.30326,-0.226782 -1.52758,-0.337766 -3.72604,-0.337766 -2.19846,0 -3.42279,0.110984 -3.72605,0.337766 -0.3724,0.278481 -0.46446,0.930612 -0.52452,3.715425 l -0.0728,3.37766 -0.74308,0.0855 -0.74309,0.0855 z m -23.98441,-10.758906 0.0706,-11.01117 0.74309,-0.0855 0.74308,-0.0855 v 9.726307 c 0,8.481815 0.0543,9.780638 0.42462,10.150927 0.32597,0.325971 1.01652,0.424621 2.97234,0.424621 h 2.54772 v 0.945744 0.945745 h -3.78601 -3.78601 z M 35.511511,83.644508 c 0.102187,-3.9545 0.466948,-5.011688 2.208257,-6.400195 0.991066,-0.79027 1.153059,-0.827997 3.555238,-0.827997 2.403557,0 2.562747,0.03714 3.536218,0.825037 1.762432,1.426455 2.125659,2.470689 2.227277,6.403155 l 0.08903,3.445213 H 41.27501 35.422488 Z m 9.683853,1.415878 c 0.504267,-0.607605 0.216774,-4.136677 -0.425576,-5.224089 -1.078415,-1.825612 -4.072804,-2.447147 -5.751501,-1.193819 -1.352443,1.009745 -1.733232,1.817232 -1.871269,3.96815 -0.184979,2.882369 -0.220444,2.857816 4.127988,2.857816 2.864771,0 3.649487,-0.08168 3.920358,-0.408058 z m 82.728916,-1.415878 c 0.10218,-3.9545 0.46695,-5.011688 2.20825,-6.400195 0.99107,-0.79027 1.15306,-0.827997 3.55524,-0.827997 2.40356,0 2.56275,0.03714 3.53622,0.825037 1.76243,1.426455 2.12566,2.470689 2.22728,6.403155 l 0.089,3.445213 h -5.85252 -5.85252 z m 9.68385,1.415878 c 0.50427,-0.607605 0.21678,-4.136677 -0.42557,-5.224089 -1.07842,-1.825612 -4.07281,-2.447147 -5.75151,-1.193819 -1.35244,1.009745 -1.73323,1.817232 -1.87127,3.96815 -0.18497,2.882369 -0.22044,2.857816 4.12799,2.857816 2.86477,0 3.64949,-0.08168 3.92036,-0.408058 z m 37.60338,-1.415878 c 0.10219,-3.9545 0.46695,-5.011688 2.20826,-6.400195 0.99107,-0.79027 1.15306,-0.827997 3.55524,-0.827997 2.40355,0 2.56274,0.03714 3.53621,0.825037 1.76244,1.426455 2.12566,2.470689 2.22728,6.403155 l 0.089,3.445213 h -5.85252 -5.85253 z m 9.68385,1.415878 c 0.50427,-0.607605 0.21678,-4.136677 -0.42557,-5.224089 -1.07842,-1.825612 -4.07281,-2.447147 -5.7515,-1.193819 -1.35245,1.009745 -1.73323,1.817232 -1.87127,3.96815 -0.18498,2.882369 -0.22045,2.857816 4.12799,2.857816 2.86477,0 3.64948,-0.08168 3.92035,-0.408058 z"
         id="path79"
         inkscape:connector-curvature="0" />
      <path
         style="display:inline;fill:#168ed5;stroke-width:0.27021277"
         d="m 31.684494,90.264721 c 0.0011,-4.495665 0.127123,-8.964309 0.28,-9.930319 0.534596,-3.378031 2.339497,-6.011888 5.007938,-7.307987 1.954046,-0.949108 5.853748,-1.079009 8.010158,-0.266823 1.780895,0.670753 3.664519,2.357905 4.53292,4.060112 1.144088,2.242598 1.34236,4.181355 1.347357,13.174804 l 0.0047,8.44415 h -0.675532 -0.675532 v -8.454931 c 0,-8.957332 -0.177244,-10.58728 -1.359259,-12.499821 -1.495865,-2.42036 -3.905908,-3.724682 -6.88223,-3.724682 -3.451093,0 -6.249494,1.839146 -7.488068,4.921257 -0.584363,1.454148 -0.614091,1.907102 -0.698224,10.638495 l -0.08788,9.119682 h -0.659193 -0.659193 z m 3.780937,3.850532 v -4.323404 h 5.809575 5.809574 v 4.323404 4.323405 h -0.675532 -0.675532 v -3.220453 c 0,-1.77125 -0.07381,-3.412793 -0.164016,-3.647872 -0.245934,-0.640896 -8.343055,-0.640896 -8.588989,0 -0.09021,0.235079 -0.164016,1.876622 -0.164016,3.647872 v 3.220453 h -0.675532 -0.675532 z m 19.240186,-5.201596 c 0.0834,-9.170756 0.109448,-9.58175 0.700315,-11.050917 0.784806,-1.951386 2.31218,-3.681516 4.147506,-4.698084 1.368889,-0.758211 1.615048,-0.801531 4.554547,-0.801531 2.855119,0 3.21986,0.0593 4.491841,0.730295 1.756405,0.926538 3.422042,2.811893 4.213509,4.76932 0.595724,1.47332 0.619762,1.854233 0.697424,11.050917 l 0.08043,9.525001 h -0.675378 -0.675378 l -0.08059,-9.389894 -0.08059,-9.389894 -0.759322,-1.546566 c -1.356238,-2.762346 -4.038911,-4.384457 -7.212989,-4.361422 -3.240478,0.02352 -5.858048,1.606695 -7.210688,4.361223 l -0.759554,1.546765 -0.08059,9.389894 -0.08059,9.389894 h -0.67827 -0.67827 z m 3.782099,0.405319 0.08091,-9.119681 0.672627,-1.1749 c 0.990278,-1.729751 2.598969,-2.585413 4.850298,-2.579875 1.94381,0.0048 2.6756,0.287784 4.009479,1.550574 1.538772,1.456762 1.681426,2.473238 1.681426,11.980905 v 8.462659 h -0.675532 -0.675532 v -8.589554 c 0,-8.370311 -0.01551,-8.620327 -0.607979,-9.795213 -0.654463,-1.297842 -2.378642,-2.421617 -3.715425,-2.421617 -0.991776,0 -2.978023,1.081923 -3.632054,1.978403 -0.531177,0.728085 -0.559754,1.169522 -0.634155,9.795213 l -0.07791,9.032768 h -0.678532 -0.678528 z m 19.40112,-3.850532 V 72.498231 h 0.675532 0.675532 v 12.970213 12.970214 h -0.675532 -0.675532 z m 4.053191,0 c 0,-12.790071 0.0075,-12.970213 0.540426,-12.970213 0.532919,0 0.540425,0.180142 0.540425,12.970213 0,12.790071 -0.0075,12.970214 -0.540425,12.970214 -0.532919,0 -0.540426,-0.180143 -0.540426,-12.970214 z m 5.406296,4.796277 c 0.0011,-4.495665 0.127124,-8.964309 0.280002,-9.930319 0.533897,-3.373621 2.330883,-5.999009 5.007937,-7.316576 1.163204,-0.572494 1.703454,-0.654701 4.302574,-0.654701 2.727784,0 3.072414,0.05883 4.188624,0.715079 0.66896,0.393294 1.44778,0.970874 1.73071,1.283511 0.67188,0.742414 1.27624,0.718599 2.02634,-0.07985 0.33496,-0.356553 1.34391,-0.978073 2.24209,-1.381155 1.49528,-0.67104 1.85255,-0.723239 4.23435,-0.618667 2.14036,0.09397 2.84659,0.240677 3.98568,0.827939 1.74971,0.90207 3.41976,2.787331 4.21022,4.752756 0.59086,1.469167 0.61691,1.880161 0.70031,11.050917 l 0.0866,9.525001 h -0.6913 -0.6913 v -8.753451 c 0,-8.101519 -0.0418,-8.888941 -0.56189,-10.572627 -1.86159,-6.027135 -9.69127,-7.274907 -13.73335,-2.188608 l -0.74859,0.941985 -1.01471,-1.359155 c -1.38852,-1.859873 -3.315346,-2.747578 -5.963804,-2.747578 -3.451093,0 -6.249495,1.839146 -7.488069,4.921257 -0.584362,1.454148 -0.614091,1.907102 -0.698224,10.638495 l -0.08787,9.119682 h -0.659195 -0.659192 l 0.0022,-8.173937 z m 3.831595,-0.675532 c 0.09822,-9.665711 0.159774,-10.072505 1.780108,-11.764163 1.896072,-1.979537 6.184416,-1.914296 8.086654,0.123027 1.47079,1.575236 1.54666,2.110385 1.65027,11.641136 l 0.0962,8.849469 h -0.68095 -0.68096 l -0.0845,-8.714362 c -0.0807,-8.323068 -0.11065,-8.762895 -0.66676,-9.795214 -1.5751,-2.923848 -6.094965,-2.88093 -7.562909,0.07181 -0.451718,0.908624 -0.50974,1.876251 -0.583057,9.723401 l -0.08142,8.714362 h -0.681301 -0.681301 z m 14.054602,-0.270213 0.0809,-9.119681 0.75474,-1.283966 c 1.01724,-1.730521 2.43466,-2.460428 4.78462,-2.463873 1.92578,-0.0028 2.65888,0.280581 3.99305,1.543638 1.53877,1.456762 1.68142,2.473238 1.68142,11.980905 v 8.462659 h -0.67553 -0.67553 v -8.589554 c 0,-8.370311 -0.0155,-8.620327 -0.60798,-9.795213 -1.16079,-2.301909 -4.34554,-3.086272 -6.29738,-1.550959 -0.40067,0.315169 -0.95374,1.068976 -1.22904,1.675125 -0.45315,0.997734 -0.50111,1.914447 -0.50648,9.681345 l -0.006,8.579256 h -0.68889 -0.68888 z m 18.86274,0.945745 c 10e-4,-4.495665 0.12712,-8.964309 0.28,-9.930319 0.5346,-3.378031 2.3395,-6.011888 5.00794,-7.307987 1.95404,-0.949108 5.85375,-1.079009 8.01016,-0.266823 1.78089,0.670753 3.66452,2.357905 4.53292,4.060112 1.14408,2.242598 1.34236,4.181355 1.34735,13.174804 l 0.005,8.44415 h -0.67554 -0.67553 v -8.454931 c 0,-8.957332 -0.17724,-10.58728 -1.35926,-12.499821 -1.49586,-2.42036 -3.9059,-3.724682 -6.88223,-3.724682 -3.45109,0 -6.24949,1.839146 -7.48807,4.921257 -0.58436,1.454148 -0.61409,1.907102 -0.69822,10.638495 l -0.0879,9.119682 h -0.6592 -0.65919 l 0.002,-8.173937 z m 3.78094,3.850532 v -4.323404 h 5.80957 5.80958 v 4.323404 4.323405 h -0.67554 -0.67553 v -3.220453 c 0,-1.77125 -0.0738,-3.412793 -0.16401,-3.647872 -0.24594,-0.640896 -8.34306,-0.640896 -8.58899,0 -0.0902,0.235079 -0.16402,1.876622 -0.16402,3.647872 v 3.220453 h -0.67553 -0.67553 z m 19.72553,-8.646809 c 0,-12.790071 0.008,-12.970213 0.54043,-12.970213 0.53205,0 0.54042,0.180142 0.54042,11.636914 0,7.504878 0.0993,11.8225 0.27972,12.159574 0.26016,0.486113 0.60974,0.522662 4.99894,0.522662 h 4.71921 v 0.810638 0.810639 h -5.53936 -5.53936 z m 14.32128,0 V 72.498231 h 0.67553 0.67553 v 12.970213 12.970214 h -0.67553 -0.67553 z m 4.05319,0 c 0,-12.790071 0.008,-12.970213 0.54042,-12.970213 0.53292,0 0.54043,0.180142 0.54043,12.970213 0,12.790071 -0.008,12.970214 -0.54043,12.970214 -0.53292,0 -0.54042,-0.180143 -0.54042,-12.970214 z m 5.40629,4.796277 c 0.001,-4.495665 0.12713,-8.964309 0.28001,-9.930319 0.53459,-3.378031 2.33949,-6.011888 5.00793,-7.307987 1.95405,-0.949108 5.85375,-1.079009 8.01016,-0.266823 1.78089,0.670753 3.66452,2.357905 4.53292,4.060112 1.14409,2.242598 1.34236,4.181355 1.34736,13.174804 l 0.005,8.44415 h -0.67553 -0.67553 v -8.454931 c 0,-8.957332 -0.17725,-10.58728 -1.35926,-12.499821 -1.49587,-2.42036 -3.90591,-3.724682 -6.88223,-3.724682 -3.4511,0 -6.2495,1.839146 -7.48807,4.921257 -0.58436,1.454148 -0.61409,1.907102 -0.69823,10.638495 l -0.0879,9.119682 h -0.65919 -0.6592 l 0.002,-8.173937 z m 3.78094,3.850532 v -4.323404 h 5.80958 5.80957 v 4.323404 4.323405 h -0.67553 -0.67553 v -3.220453 c 0,-1.77125 -0.0738,-3.412793 -0.16402,-3.647872 -0.24593,-0.640896 -8.34305,-0.640896 -8.58899,0 -0.0902,0.235079 -0.16401,1.876622 -0.16401,3.647872 v 3.220453 h -0.67554 -0.67553 z M 151.38671,83.306742 V 72.498231 h 0.6722 0.6722 l 0.0709,9.93032 0.0709,9.930319 2.83723,0.135107 2.83724,0.135106 0.0855,0.743085 0.0855,0.743085 h -3.66582 -3.66582 z M 35.556524,86.667141 c -0.349704,-0.911313 0.104732,-5.95153 0.647163,-7.177785 1.070285,-2.419557 3.630765,-3.58629 6.473994,-2.950003 3.104855,0.694836 4.173429,2.551527 4.233525,7.355925 l 0.03827,3.059337 -5.613284,0.07305 c -4.945974,0.06437 -5.633064,0.02151 -5.779666,-0.360528 z m 9.787275,-1.388007 c 0.379034,-0.379033 0.433665,-0.80142 0.311898,-2.411459 -0.264148,-3.49265 -1.633574,-5.080994 -4.380691,-5.080994 -2.747756,0 -4.17807,1.667688 -4.400467,5.130766 -0.177896,2.770116 -0.0982,2.82121 4.400467,2.82121 3.037173,0 3.682108,-0.07284 4.068793,-0.459523 z m 82.625491,1.388007 c -0.3497,-0.911313 0.10473,-5.95153 0.64716,-7.177785 1.07029,-2.419557 3.63077,-3.58629 6.474,-2.950003 3.10485,0.694836 4.17343,2.551527 4.23352,7.355925 l 0.0383,3.059337 -5.61328,0.07305 c -4.94598,0.06437 -5.63307,0.02151 -5.77967,-0.360528 z m 9.78728,-1.388007 c 0.37903,-0.379033 0.43366,-0.80142 0.31189,-2.411459 -0.26415,-3.49265 -1.63357,-5.080994 -4.38069,-5.080994 -2.74775,0 -4.17807,1.667688 -4.40046,5.130766 -0.1779,2.770116 -0.0982,2.82121 4.40046,2.82121 3.03717,0 3.68211,-0.07284 4.0688,-0.459523 z m 37.49995,1.388007 c -0.3497,-0.911313 0.10474,-5.95153 0.64717,-7.177785 1.07028,-2.419557 3.63076,-3.58629 6.47399,-2.950003 3.10486,0.694836 4.17343,2.551527 4.23353,7.355925 l 0.0383,3.059337 -5.61328,0.07305 c -4.94597,0.06437 -5.63306,0.02151 -5.77967,-0.360528 z m 9.78728,-1.388007 c 0.37903,-0.379033 0.43366,-0.80142 0.3119,-2.411459 -0.26415,-3.49265 -1.63358,-5.080994 -4.38069,-5.080994 -2.74776,0 -4.17807,1.667688 -4.40047,5.130766 -0.1779,2.770116 -0.0982,2.82121 4.40047,2.82121 3.03717,0 3.6821,-0.07284 4.06879,-0.459523 z"
         id="path77"
         inkscape:connector-curvature="0" />
    </g>
  </g>
</svg>
